<svg width="400" height="100" viewBox="0 0 400 100" fill="none" xmlns="http://www.w3.org/2000/svg">
  <!-- Mountain + Sun Icon -->
  <path d="M8 80L28 30L38 50L48 24L88 80H8Z" fill="#0f766e" opacity="0.15" />
  <path d="M8 80L28 36L38 52L48 32L88 80" stroke="#0f766e" stroke-width="3.5" stroke-linejoin="round" stroke-linecap="round" fill="none" />
  <circle cx="76" cy="22" r="8" fill="#f59e0b" />
  <path d="M40 80C40 80 44 62 48 62C52 62 56 80 56 80" stroke="#0f766e" stroke-width="2.5" stroke-linecap="round" fill="none" />
  <path d="M16 70C22 67 26 68 34 65" stroke="#0f766e" stroke-width="2" stroke-linecap="round" opacity="0.4" />
  <path d="M60 68C66 65 70 66 80 63" stroke="#0f766e" stroke-width="2" stroke-linecap="round" opacity="0.4" />

  <!-- Travel VN Tours text -->
  <text x="108" y="45" font-family="Lora, Georgia, serif" font-size="28" font-weight="700" fill="#0f766e" letter-spacing="-0.5">Travel VN Tours</text>
  <text x="108" y="70" font-family="Lora, Georgia, serif" font-size="13" fill="#64748b" letter-spacing="2">AUTHENTIC VIETNAM ADVENTURES</text>
</svg>
